<svg width="12" height="13" viewBox="0 0 12 13" fill="none" xmlns="http://www.w3.org/2000/svg">
<path d="M3.82384 8.1763C3.76871 8.12098 3.70315 8.07711 3.63095 8.04718C3.55874 8.01726 3.48132 8.00189 3.40313 8.00195C3.32494 8.00202 3.24754 8.01752 3.17539 8.04756C3.10323 8.0776 3.03775 8.12159 2.98271 8.17699C2.92767 8.23239 2.88417 8.29811 2.85471 8.37036C2.82525 8.44261 2.81041 8.51996 2.81104 8.59796C2.81168 8.67596 2.82779 8.75305 2.85843 8.82482C2.88907 8.89658 2.93365 8.96158 2.98959 9.01607C3.48832 9.5086 4.12222 9.84257 4.81118 9.97576C5.50013 10.1089 6.2132 10.0354 6.86025 9.76435C7.50729 9.49332 8.05926 9.03701 8.44639 8.45308C8.83358 7.86915 9.03848 7.18384 9.03524 6.48376C9.03206 5.78369 8.82087 5.10023 8.42838 4.51987C8.0359 3.93951 7.47975 3.48823 6.83022 3.22316C6.18072 2.95803 5.467 2.89097 4.7793 3.03049C4.0916 3.16996 3.46079 3.50967 2.9666 4.00675C2.91182 4.06188 2.86846 4.12726 2.83901 4.19917C2.80957 4.27102 2.7946 4.34796 2.79496 4.42565C2.79532 4.50327 2.811 4.58009 2.84113 4.65169C2.87124 4.72328 2.9152 4.78823 2.97049 4.84292C3.02578 4.89755 3.09131 4.94081 3.16336 4.97015C3.2354 4.99954 3.31254 5.01446 3.39037 5.01415C3.46819 5.01377 3.54519 4.99811 3.61696 4.96809C3.68873 4.93801 3.75386 4.89414 3.80864 4.83901C4.13794 4.50756 4.55838 4.2809 5.01678 4.1878C5.47518 4.0947 5.95096 4.13932 6.38397 4.31595C6.81695 4.49258 7.18775 4.79333 7.44941 5.18021C7.71107 5.56704 7.85186 6.0226 7.85405 6.48929C7.85616 6.95597 7.71954 7.41282 7.46144 7.80204C7.20333 8.19127 6.83533 8.49541 6.40397 8.676C5.97262 8.85659 5.49727 8.90552 5.03803 8.81661C4.57879 8.7277 4.15617 8.50474 3.82384 8.1763Z" fill="#757575"/>
<path d="M7.7752e-05 4.01679C0.00078203 4.40511 0.0786882 4.78944 0.229288 5.14755C0.379887 5.50567 0.600188 5.8304 0.877438 6.10299C0.988923 6.21343 1.05194 6.36347 1.05265 6.52021C1.05337 6.67695 0.99172 6.82759 0.881238 6.93904C0.328989 7.49636 0.0208668 8.24943 0.024464 9.03309C0.0280613 9.81673 0.343084 10.567 0.900427 11.1192C1.81603 12.0235 2.97983 12.6367 4.2447 12.8812C5.50957 13.1258 6.81874 12.9908 8.00667 12.4932C9.19465 11.9957 10.2081 11.1579 10.9189 10.0859C11.6296 9.01382 12.0059 7.75562 11.9999 6.4703C11.9941 5.18497 11.6063 3.93028 10.8858 2.86477C10.1652 1.7992 9.14413 0.970737 7.95172 0.484038C6.75925 -0.00266227 5.44888 -0.125783 4.18631 0.130339C2.92373 0.386399 1.7656 1.01014 0.858312 1.92276C0.58358 2.19784 0.366266 2.52456 0.21895 2.88404C0.0716333 3.24345 -0.00275843 3.62848 7.7752e-05 4.01679ZM1.70016 2.75514C2.44264 2.00759 3.39063 1.49653 4.42427 1.28652C5.45791 1.07652 6.53073 1.17695 7.50715 1.57521C8.48357 1.97347 9.31963 2.65159 9.90973 3.52394C10.4998 4.39622 10.8173 5.4235 10.8221 6.47583C10.827 7.52814 10.5189 8.55826 9.93683 9.43591C9.35483 10.3136 8.52494 10.9993 7.55226 11.4065C6.57958 11.8136 5.50767 11.9239 4.47214 11.7233C3.43662 11.5227 2.48398 11.0203 1.73468 10.2796C1.40027 9.94824 1.21126 9.49808 1.2091 9.02787C1.20694 8.55765 1.39181 8.10578 1.72315 7.77136C2.05452 7.43701 2.23941 6.98519 2.23727 6.51499C2.23512 6.04482 2.0461 5.59473 1.71169 5.2634C1.37679 4.93233 1.18743 4.48205 1.18527 4.01169C1.18311 3.54134 1.36832 3.08926 1.70016 2.75514Z" fill="#757575"/>
<path d="M6.53766 6.49997C6.53766 5.96946 6.10658 5.53944 5.57483 5.53944C5.04306 5.53944 4.61199 5.96946 4.61199 6.49997C4.61199 7.03046 5.04306 7.46051 5.57483 7.46051C6.10658 7.46051 6.53766 7.03046 6.53766 6.49997Z" fill="#A545EC"/>
</svg>
